<?xml version="1.0" encoding="UTF-8"?><svg id="Layer_2" xmlns="http://www.w3.org/2000/svg" viewBox="0 0 195.51 201.8"><defs><style>.cls-1{fill:#fff;stroke-width:0px;}</style></defs><g id="Layer_1-2"><path class="cls-1" d="M84.89,54.32s-9.42,2.1-9.15-2.72c.13-1.62,1.1-2.23,2.02-2.06.04-.88-1.84-3.42,2.28-4.42,1.45-1.97,2.63-3.55,3.02-4.77.39-1.23,1.53-2.89,5.26-2.1,3.72.79,7.75,4.38,8.32,5.43,2.19.04,4.47.4,3.63.83-.83.44-1.31,1.27-1.14,1.4.18.13,1.36.79-2.45.88.13.79.85,1.01,1.52,1.4.67.39-.19.88,0,1.05s.54,2.01-1.39,1.27c-1.93-.75-2.06-1.4-2.58-1.31-.53.09-1.93.31-1.71.83.22.53,2.1,1.75-.31,2.19-.48.44.75,1.14-.18,1.49-.92.35-4.95,3.5-6.88,4.29-1.88,0-2.5-.53-2.32-1.31.17-.79,1.01-1.36,2.23-1.49,0-.53.13-.94-.18-.88h.01Z"/><path class="cls-1" d="M84.06,64.35c-.92.04-3.59-1.8-2.19-2.8,1.4-1.01,7.71-5.08,9.11-5.48,1.4-.39,3.24,1.45,1.53,2.85-1.71,1.4-8.45,5.43-8.45,5.43Z"/><path class="cls-1" d="M93.82,59.79c-.16-.97.96-5.04,1.05-5.83.09-.79,3.2-1.14,2.45,2.28s-3.33,4.6-3.5,3.55Z"/><path class="cls-1" d="M98.19,52.48s17.51-.78,18.95,0c1.45.78,7.44,10.11,6,18.33-1.45,8.22-4,10.33-15.33,11.67-.22-2.67-.6-9.55-1.71-11.41-1.11-1.87-4.9-6.18-6.65-6.13,0,1.93-.35,7.64-.35,7.64,0,0-5.6.41-6.36-.76-.12-2.16,0-8.58,0-8.58,0,0,5.2-4.55,5.46-5.6.84.47.96,3.15,7.26,2.54-.12-.61-7.47.15-7.26-7.7h0Z"/><path class="cls-1" d="M91.51,60.18s-5.55,4.7-6.65,5.57c-.58,1.52-1.23,6.24,6.01,6.3.47-2.92.64-11.88.64-11.88h0Z"/><path class="cls-1" d="M78.2,67.31c-1.69-.04-3.15-.44-2.98-1.84.18-1.4,2.57-2.86,4.14-2.51,1.58.35,4.14,1.05,4.14,7.06,1.11,1.28,4.61,3.68,8.87,3.91s6.83-.29,6.83.99v8.17s-5.09-.18-17.75-9.05c-1.04-1.4-1.74-2.28-1.63-4.38-.12-1.34-1.05-2.35-1.63-2.36h0Z"/><path class="cls-1" d="M74.38,68.26c-2.11-.08-8.23,5.09-3.7,7.21,1.29-1.11,2.4-2.48,2.4-2.48,0,0-1.11,2.94,1.3,3.68s1.48-1.48,2.78-1.39c.74,1.2.93,1.94,2.13,1.94,1.2-.18,1.57-3.61,0-5.64-1.57-2.04-2.59-3.24-4.9-3.33h-.01Z"/><path class="cls-1" d="M100.44,68.92v16.13s5.38-1.66,5.9-3.02c-.21-2.81-1.09-13.22-5.9-13.11Z"/><path class="cls-1" d="M87.55,79.58s6.22,4.23,10.27,5.9c-.57.71-3.25,4.17-4.17,3.9s-5.75-6.82-6.11-9.8h0Z"/><polygon class="cls-1" points="65.26 88.81 49.55 88.81 49 85.7 65.26 85.7 65.26 88.81"/><polygon class="cls-1" points="120.59 88.59 175.59 88.59 175.59 84.04 114.59 84.04 120.59 88.59"/><path class="cls-1" d="M107.71,83.74c.65-.67,4.77,2.73,3.59,3.35-1.18.62-12.39,5.33-13.48,4.96-1.09-.37-.73-3.22.36-3.78,1.09-.56,7.54-2.48,9.52-4.52h.01Z"/><path class="cls-1" d="M95.25,91.36c-1.35-.69-8.56,6.32-5.4,6.82,3.17.5,10.79,2.05,12.83,2.91,1.8-.81,3.47-2.29,3.16-3.16,1.24.06,3.35,1.98,4.96,1.24,1.61-.74,10.53-7.13,11.09-8.18-1.8-1.55-5.7-3.8-7.31-3.73s-13.51,7.07-19.33,4.1Z"/><path class="cls-1" d="M91.47,100.22c.8.04,9.92,3.47,12.21,3.04s2.73-2.66,4.03-2.54c1.3.12,1.92,1.3,4.09-.06,2.17-1.36,6.07-4.77,6.69-5.58.12,1.43,0,5.33-8.43,9.11s-27.89,9.36-28.38,12.02c.74.31,3.22-.5,4.83-1.36,1.05.81,2.98,3.41,2.48,7.62s-3.72,11.46-3.72,13.51-.19,11.03-.06,11.96c.12.93,1.67,6.07-.81,5.7-2.48-.37-3.97-.43-4.96-.25-.99.19-2.98,1.8-4.71,1.55-1.74-.25-4.71-1.12-4.59-1.98.12-.87,2.05-.87,3.72-1.49,1.67-.62,2.79-2.48,6.01-3.66-.12-2.17-1.08-17.77-1.08-21.11s-1.11-10.11.33-13c1.45-2.89,8.88-13.63,12.33-13.48h.02Z"/><path class="cls-1" d="M103.37,109.59c-.22,1,5.63,15.19,8.15,15.43,2.52.24,25.85-4.76,30.3-3.43,1.33,1.78,4.11,5.22,4,7.11,0,0,.59,4.64.22,4.88.73.18,2.73-.49,3.22-1.79.49-1.3.12-7.56.3-8.65.18-1.09,2.94-6.68-.82-6.59-3.76.09-14.63.09-18.11-.86-3.49-.95-11.42-2.41-13.38-1.39-1.97,1.01-4.25,4.25-4.25,5.14-.82.19-1.08-.63-.25-3.04s3.68-9.64,3.36-13.51c-2.85,1.02-12.73,6.71-12.73,6.71h-.01Z"/><path class="cls-1" d="M90.09,87.26c.25.65.62,1.83,1.3,2.39l-18.7-1.19s-2.17-1.34-1.3-1.65l18.7.46h0Z"/><path class="cls-1" d="M69.53,85.7h18.7s-1.55-2.13-1.92-3.49c-3.28,0-17.26.27-17.26.27,0,0-2-.14-2,3.51,0,.99,1.49,2.46,2.48-.29Z"/><path class="cls-1" d="M44.07,88.81h3.84s1.24-.53,0-2.02-3.65-2.29-1.92-4.89c-1.8-.31-4.46-.87-4.03,4.89h-1.86s-.68-3.28-4.96-3.28-14.92,4.4-14.92,4.4c0,0,11.95,3.28,14.99,3.28s5.02-2.97,5.02-2.97h1.49s.68,2.23,1.43,3.22c0,1.55.06,3.63.06,3.63,0,0-1.8.64-1.55,2.81s1.42,2.11,1.8,2.11.87-.68,2.35-.68c.74-.74.26-3.4-1.18-3.96,0-1.24-.12-2.6-.12-2.6,0,0,1.55-.98,1.36-1.88-.19-.9-1.8-.84-1.8-2.05h0Z"/><path class="cls-1" d="M74.32,106.9l.11-.07c1.2-.71,1.71-2.54,1.73-2.61l.02-.07v-.07c0-.08-.16-8.53-.16-11.01,0-2.82-4.75-4.65-4.95-4.73l-.29-.11-.23.21c-.42.38-1.69,1.36-2.6,1.36-1.18,0-1.85-.19-3.01-1.34l-.15-.15h-.21c-3.83,0-5.68,4.6-5.76,4.8l-.03.16c-.03.9-.32,8.82,0,10.18.29,1.15,1.28,2.39,1.69,2.87-.77,2.69-4.66,17.3.56,19.14v2.5h12.54v-2.62c4.77-2.16,1.73-14.75.72-18.43h.01ZM59.79,93.4c.24-.55,1.81-3.93,4.6-4.09,1.3,1.25,2.23,1.48,3.56,1.48,1.19,0,2.49-.96,3.03-1.41,1.34.56,4.03,2.03,4.03,3.68,0,2.36.15,10.11.16,10.96-.13.44-.53,1.43-1.14,1.88l-2.49-.04v-4.78h-8.51v4.64l-1.74-.03c-.35-.41-1.27-1.54-1.51-2.49-.23-.91-.12-6.33,0-9.81h0ZM68.53,123.37h-2.28c-.55,0-1-.45-1-1s.45-1,1-1h2.28c.55,0,1,.45,1,1s-.45,1-1,1ZM73.25,124.4l-6.16-6.88-5.67,7.04v-.02c-3.8-1.24-1.37-12.96,0-17.84l11.84.19c1.35,4.83,3.53,15.74-.02,17.51h.01Z"/><path class="cls-1" d="M71.57,111.74c1.39-2.02-.38-3.42-.38-3.42h-7.38c-2.36,0-1.6,3.29-1.6,3.29l4.68,3.99s3.29-1.84,4.68-3.87h0Z"/><path class="cls-1" d="M68.49,116.38l4.43,5.31s-.46-6.28-.63-8.35c-1.05.17-3.79,3.04-3.79,3.04h-.01Z"/><path class="cls-1" d="M62,113.34c-.17,2.07-.63,8.35-.63,8.35l4.43-5.31s-2.74-2.87-3.79-3.04h0Z"/><path class="cls-1" d="M70.77,99.64h.77v-.77c0-.43-.34-.77-.77-.77h-6.97c-.43,0-.77.35-.77.77v.77h7.74Z"/><path class="cls-1" d="M60.61,128.7h-.83v.83c0,.46.37.83.83.83h13.01c.46,0,.83-.37.83-.83v-.83h-13.84Z"/><path class="cls-1" d="M97.76,201.8c-19.77,0-39.26-5.14-56.34-14.86-16.57-9.43-30.64-22.98-40.69-39.2l-.73-1.18,1.21-.68c.07-.04,6.49-3.69,10.09-8.62-2.52-.92-4.33-2.69-5.21-5.11-.67-1.87-.51-3.67.48-5.08.97-1.38,2.6-2.21,4.37-2.21,1.45,0,2.78.57,3.75,1.6.82.87,1.77,2.51,1.6,5.31-.07,1.16-.35,2.34-.84,3.53,3.77.08,8.12-1.65,11.92-4.66l1.16-.92.79,1.25c14.95,23.6,40.54,37.69,68.44,37.69s53.48-14.09,68.44-37.69l.79-1.25,1.16.92c3.75,2.96,8.03,4.66,11.75,4.66h.16c-.49-1.19-.76-2.38-.84-3.53-.17-2.81.77-4.44,1.6-5.31.97-1.03,2.3-1.6,3.75-1.6,1.76,0,3.4.83,4.37,2.21.99,1.41,1.16,3.21.48,5.08-.88,2.42-2.69,4.18-5.21,5.11,3.6,4.94,10.01,8.58,10.09,8.62l1.21.68-.73,1.18c-10.05,16.21-24.12,29.77-40.69,39.2-17.08,9.72-36.57,14.86-56.34,14.86h0ZM3.72,147.47c20.6,32.37,55.65,51.66,94.04,51.66s73.44-19.28,94.04-51.66c-2.32-1.46-7.41-5-10.35-9.55h-.03l-.02-.03c-.49.05-.99.08-1.5.08-3.98,0-8.28-1.54-12.24-4.36-15.55,23.65-41.57,37.72-69.91,37.72s-54.36-14.07-69.91-37.72c-3.96,2.82-8.26,4.36-12.24,4.36-.51,0-1.01-.03-1.5-.08l-.02.03h-.03c-2.94,4.54-8.04,8.08-10.35,9.54h.02ZM10.94,127.53c-.88,0-1.72.41-2.19,1.07-.48.68-.53,1.6-.16,2.64.65,1.79,2.09,3.07,4.12,3.67.54-1.14.85-2.24.91-3.3.09-1.47-.21-2.62-.88-3.32-.46-.49-1.1-.76-1.81-.76h0ZM184.58,127.53c-.71,0-1.35.27-1.81.76-.66.7-.97,1.85-.88,3.32.06,1.06.37,2.17.91,3.3,2.02-.61,3.47-1.89,4.12-3.67.38-1.04.32-1.95-.16-2.64-.46-.66-1.3-1.07-2.18-1.07Z"/><path class="cls-1" d="M173.61,131.77l-1.15-.67c7.64-13.12,11.68-28.13,11.68-43.39,0-47.63-38.75-86.38-86.38-86.38S11.38,40.08,11.38,87.71c0,15.26,4.04,30.27,11.68,43.39l-1.15.67c-7.76-13.33-11.86-28.56-11.86-44.06,0-48.36,39.35-87.71,87.71-87.71s87.71,39.35,87.71,87.71c0,15.5-4.1,30.73-11.86,44.06Z"/><path class="cls-1" d="M170.22,129.48l-2.31-1.33c7.07-12.24,10.81-26.22,10.81-40.44,0-44.64-36.32-80.96-80.96-80.96S16.8,43.07,16.8,87.71c0,14.22,3.74,28.2,10.81,40.44l-2.31,1.33c-7.31-12.65-11.17-27.09-11.17-41.78,0-46.1,37.52-83.62,83.63-83.62s83.63,37.52,83.63,83.63c0,14.68-3.86,29.13-11.17,41.78h0Z"/><path class="cls-1" d="M30.32,152.26c-2.81-2.94-5.42-6.05-7.83-9.32l-.14,1.7c1.73,2.28,3.56,4.49,5.48,6.61l-.55.5c-2.36-1.49-4.93-2.81-7.74-4.02-.18.87-.33,1.75-.48,2.63.84,1.2,1.38,2.32,1.62,3.41.2.85.24,1.83.11,2.98-.15,1.06-.29,2.14-.41,3.22l8.33-7.78c.56.6,1.12,1.19,1.69,1.77l-.08-1.71h0ZM20.87,150.37c2,.84,3.7,1.68,5.12,2.56l-4.3,3.91c.36-1.95.06-4.09-.82-6.47Z"/><path class="cls-1" d="M33.97,155.87l-.78-.73c0-.35.04-.66.14-.91l.48-.77-.1-.59c-1.29,1.31-2.31,2.58-3.03,3.81.45-1.08.68-1.83.68-2.28.02-.74-.36-1.51-1.13-2.33-.24-.25-.5-.5-.8-.75l.12,1.74c.59.53.93,1.14,1.03,1.82.09.69-.09,1.27-.55,1.74l-5.81,5.91.19,1.79,8.02-8.37c.58.55,1.16,1.1,1.75,1.64l-.21-1.7v-.02Z"/><path class="cls-1" d="M35.93,164.13c.75-.04,1.33-.33,1.75-.85.43-.54.58-1.19.47-1.95s-.47-1.38-1.09-1.91c-.58-.48-1.25-.72-2.04-.71-.79,0-1.4.24-1.83.71-.45.5-.62,1.15-.49,1.96.14.8.52,1.49,1.17,2.03.62.53,1.31.76,2.06.72ZM33.83,172.28c-.74-4.37-1.32-7.69-2.02-10.05l-1.65,1.87c1.19,3.2,2.25,6.17,3.11,8.94l.57-.76h0ZM35.55,162.61c-.64,0-1.21-.22-1.69-.64-.4-.35-.42-.73-.06-1.13.33-.38.82-.57,1.47-.6.64-.02,1.19.14,1.63.52.45.37.48.79.1,1.26-.33.4-.81.6-1.45.59h0Z"/><path class="cls-1" d="M50.87,168.45c-4.01-2.33-7.84-4.96-11.45-7.86.12.57.24,1.16.37,1.73,2.74,2.13,5.59,4.11,8.55,5.93l-1.59,2.58c.22-1.37-.1-2.33-1-2.91-.26-.16-.63-.23-1.13-.19s-.82.16-.96.37c-.2-1.22-.75-2.15-1.67-2.81-.72-.52-1.5-.67-2.36-.46-.75.19-1.36.58-1.84,1.2-.55.72-.72,1.53-.47,2.42s.86,1.69,1.83,2.38c.42.3.87.48,1.35.54.57.07.96-.05,1.16-.36.25-.37.34-.8.3-1.31-.05-.51-.28-.9-.7-1.19-.33-.23-.69-.34-1.08-.33-.39,0-.68.14-.87.4-.17.24-.24.55-.19.93-.91-.86-1.1-1.62-.6-2.29.33-.45.8-.67,1.42-.7.62-.02,1.19.17,1.76.56.56.4.97.91,1.24,1.55s.31,1.22.12,1.74l.58.17c.12-.28.23-.5.33-.66.38-.58.87-.67,1.48-.28.35.23.61.57.76,1.02.16.45.15.82-.03,1.11l-3.21,5.21.69,1.69,5.79-9.72c.67.4,1.35.79,2.03,1.17-.21-.55-.42-1.1-.62-1.65v.02Z"/><path class="cls-1" d="M55.62,171.04l-.95-.49c-.1-.33-.14-.64-.12-.91l.24-.87-.26-.54c-.87,1.62-1.5,3.12-1.84,4.5.13-1.16.14-1.96,0-2.38-.19-.72-.76-1.35-1.74-1.92-.3-.18-.63-.34-.98-.5l.6,1.63c.72.34,1.21.83,1.49,1.46.28.63.27,1.24-.05,1.83l-3.93,7.3.68,1.66,5.36-10.28c.71.37,1.42.73,2.14,1.08-.23-.52-.46-1.04-.68-1.57h.03Z"/><path class="cls-1" d="M62.51,174.18c-2.5-1.02-4.97-2.16-7.37-3.39l.66,1.6c1.19.59,2.39,1.15,3.6,1.7-2.33.87-3.95,2.08-4.75,3.75-.57,1.19-.75,2.42-.52,3.68.28,1.53,1.18,2.63,2.66,3.26.65.28,1.28.35,1.89.22s1-.43,1.19-.91c.21-.53.07-1.03-.4-1.47-.12-.22-.33-.39-.65-.53-.39-.16-.8-.2-1.23-.12-.44.08-.72.25-.84.54-.17.39-.07.88.32,1.46l-.36-.05c-.78-.34-1.3-1.02-1.51-2.04-.17-.89-.1-1.64.2-2.29.72-1.55,1.73-2.65,2.98-3.3,1.41-.77,3.03-.95,4.91-.6l-.79-1.48v-.03Z"/><path class="cls-1" d="M74.2,178.07c-4.12-1.07-8.17-2.43-12.1-4.06l.81,1.55,1.4.54-2.23,5.89c.41.69.83,1.39,1.26,2.08.79-.75,1.78-1.32,2.97-1.74,1.18-.41,2.41-.61,3.7-.6-.59.9-1.01,1.75-1.25,2.55-.29.97-.47,2.53-.47,4.68l.88.64c.07-1.54.21-2.66.41-3.35.44-1.53,1.53-3.03,3.19-4.55-.64-.66-1.26-1.34-1.87-2.01-1.01.04-2.16.21-3.45.5-1.1.27-2.22.53-3.36.76l1.58-4.36c3.14,1.13,6.34,2.1,9.58,2.89l-1.02-1.42h-.03Z"/><path class="cls-1" d="M87.83,180.55c-.85-.17-1.28-.66-1.28-1.46-.25-.3-.49-.55-.7-.76-.13,1.38-.22,3.27-.25,5.67-.15-.52-.57-1.28-1.23-2.3-.75-1.15-1.3-1.76-1.71-1.83-.67-.1-1.34,0-2.02.31-.58.27-1.09.65-1.51,1.14-.02-.56-.28-1.1-.77-1.63-.5-.52-1.06-.87-1.7-1.01-.9-.21-1.81-.43-2.7-.67l.99,1.41c1.13.26,1.83.44,2.09.56.62.29,1.01.79,1.19,1.52-.61.03-1.19.22-1.76.59s-.92.79-1.03,1.28c-.09.39-.02.77.23,1.15.25.38.61.62,1.08.72.45.09.91.06,1.37-.11s.81-.42,1.06-.73c.41.89,1.02,1.4,1.83,1.54,1.17.19,1.83-.19,1.97-1.14.07-.44-.1-.89-.48-1.35-.2-.23-.6-.59-1.18-1.11.04-.23.25-.4.63-.52.33-.11.64-.14.94-.1.46.08.93.47,1.45,1.22.52.74.76,1.31.7,1.72l-1.03,6.79,1.38,1.3,1.31-11.23c.78.09,1.55.17,2.33.24l-1.19-1.23v.02Z"/><path class="cls-1" d="M108.04,180.51c-4.58.5-9.2.67-13.81.49.42.39.84.78,1.28,1.17,1.78.04,3.57.03,5.35-.02,0,.1,0,.45-.03,1.04s-.03,1.07-.02,1.45c.07,2.3.79,3.44,2.19,3.37.58-.03,1.32-.33,2.19-.92s1.35-1.11,1.46-1.55c.55.4.85.83.9,1.31.08.79-.31,1.52-1.19,2.15-.79.59-1.72.91-2.79.97-1.91.11-3.49-.68-4.66-2.32-.93-1.27-1.45-2.76-1.6-4.46l-.77-.36c.31,3.07,1.07,5.39,2.3,6.91s2.93,2.26,5.02,2.13c1.66-.1,2.92-.6,3.74-1.48.77-.83,1.07-1.88.93-3.16-.07-.67-.37-1.35-.88-2.04-.57-.73-1.21-1.19-1.92-1.4-.46.55-.93,1.07-1.4,1.59-.62.62-1.28.94-1.98.98l-.19-4.26c2.45-.12,4.89-.32,7.32-.62l-1.43-.97h-.01Z"/><path class="cls-1" d="M113.53,179.74l-1.05.17c-.28-.21-.5-.43-.65-.66l-.32-.85-.53-.28c.26,1.82.65,3.4,1.2,4.72-.59-1.02-1.05-1.66-1.4-1.92-.58-.48-1.42-.63-2.54-.51-.34.04-.7.1-1.08.18.48.32.96.64,1.45.95.78-.14,1.47-.06,2.07.29.6.34.96.83,1.05,1.49l1.19,8.2c.51.31,1.02.63,1.54.93l-1.81-11.46c.79-.12,1.58-.26,2.36-.4l-1.48-.86h0Z"/><path class="cls-1" d="M127.75,176.15c-4.8,1.63-9.75,2.86-14.75,3.68.5.3.99.59,1.5.89,2.63-.47,5.24-1.05,7.82-1.74l.22.83c-2.44,1.38-4.64,2.98-6.65,4.9.74.49,1.48.99,2.24,1.47,3.27-.39,5.83.53,7.85,2.93l.62.24-2.41-8.5.36-.12c.87-.28,1.76-.27,2.67.04.92.31,1.5.82,1.75,1.55l-.02.22c-.43-.24-.92-.29-1.46-.11-.23.07-.47.19-.73.34-.4.47-.54.91-.42,1.3.1.35.37.6.81.75.44.14.89.15,1.34,0,.63-.2,1.09-.56,1.37-1.1.28-.53.33-1.04.16-1.54-.35-1.02-1.12-1.82-2.29-2.43-1.24-.65-2.45-.79-3.68-.45l-.26.07-.21-.74c1.94-.55,3.87-1.16,5.77-1.84l-1.58-.64h-.02ZM118.68,184.49c1.58-1.41,2.97-2.52,4.22-3.32l1.52,5.65c-1.5-1.29-3.4-2.05-5.74-2.33h0Z"/><path class="cls-1" d="M145.99,165.43c-3.18-.53-5.78-.29-8.01.86-.91.46-1.66,1.24-2.3,2.34-.66,1.16-.84,2.13-.48,2.94.11.24.37.44.8.58l1.04.28c-1.02.47-2.04.93-3.07,1.36.54.18,1.09.35,1.64.52l1.76-.79,4.24,9.17,1.81.34-4.84-10.08c.68-.33,1.36-.66,2.03-1.01-.56-.13-1.12-.27-1.68-.42l-1.24.6-.88-.71c-.27-.69-.03-1.53.65-2.54.62-.94,1.31-1.62,2.09-2.03,1.1-.58,2.26-.91,3.49-1,.45-.04,1.62,0,3.56.04l-.61-.45h0Z"/><path class="cls-1" d="M149.08,165.71c-3.39,2.24-6.93,4.25-10.58,6.02l1.65.44c2.56-1.29,5.06-2.69,7.49-4.2l.4.63c-1.89,2.06-3.65,4.34-5.34,6.9.83.33,1.66.64,2.5.95,1.32-.62,2.54-.94,3.65-.98.87-.04,1.85.09,2.95.42,1.02.34,2.06.67,3.09.98l-6.16-9.59c.69-.44,1.37-.89,2.04-1.35l-1.69-.22h0ZM145.52,174.66c1.19-1.81,2.32-3.34,3.44-4.57l3.07,4.93c-1.86-.7-4.01-.79-6.51-.36h0Z"/><path class="cls-1" d="M159.73,157.53c-3.52,3.13-7.27,5.98-11.21,8.54l1.73.21c3.96-2.65,7.73-5.61,11.25-8.83-.59.03-1.18.05-1.77.07h0ZM161.91,160.65c-1.22-.27-2.02-.24-2.44.09l-.03.09c.13.45.12,1.09-.03,1.89-.16.89-.42,1.49-.78,1.8h-.07c.02-.59-.06-.99-.24-1.22-.23-.29-.56-.42-.99-.42-.42,0-.81.15-1.16.42-.52.41-.84.84-.97,1.32-.13.48-.04.94.28,1.37.4.55.98.8,1.76.75.71-.03,1.41-.33,2.09-.86.74-.58,1.28-1.2,1.61-1.84.31-.58.49-1.31.54-2.16l.05-.07c.16-.14.45-.1.87.12.33.18.58.37.74.56.49.56.63,1.33.39,2.31-.25.97-.75,1.77-1.5,2.38-1.55,1.26-3.39,1.74-5.4,1.43-1.56-.24-3.09-.92-4.58-2.02l-.83.3c2.34,1.62,4.12,2.59,5.27,2.96,2.42.78,4.64.4,6.49-1.09,1.31-1.06,2.06-2.32,2.23-3.75.17-1.34-.21-2.5-1.08-3.47-.32-.36-1.06-.66-2.2-.91l-.02.02Z"/><path class="cls-1" d="M163.76,153.73l-.76.75c-.35,0-.65-.06-.91-.16l-.75-.5-.59.08c1.27,1.33,2.5,2.39,3.71,3.15-1.07-.49-1.82-.75-2.26-.75-.74-.05-1.52.31-2.36,1.06-.26.23-.52.49-.78.77.58,0,1.16-.04,1.74-.06.56-.57,1.16-.9,1.86-.96.69-.07,1.26.13,1.72.61l5.71,6,1.79-.13-8.11-8.29c.57-.56,1.14-1.12,1.69-1.7l-1.71.16v-.03Z"/><path class="cls-1" d="M172.29,144.01l-.25.33c-.46.59-.99.65-1.61.17l-.21-.26-.98.2c.64.5,1.47,1.11,2.5,1.82l2.58,1.73c-1.4-.46-2.46-.65-3.19-.57-1.05.1-2.03.7-2.99,1.8-.72.82-1.19,1.72-1.43,2.7-.25,1.11-.06,1.98.58,2.6.24.23.6.36,1.06.38.46,0,.83-.13,1.11-.42.19-.2.38-.65.59-1.33.2-.68.37-1.11.51-1.27.33-.36.6-.45.85-.23.16.15.26.75.25,1.82,0,.94-.06,1.64-.15,2.11.72-.07,1.44-.15,2.16-.25.09-2.45-.26-3.92-.91-4.48-.47-.4-1.01-.51-1.62-.34-.55.17-1.08.54-1.59,1.11-.33.38-.62.86-.87,1.46-.42-1.17-.15-2.28.79-3.37.65-.75,1.56-1.13,2.78-1.18,1.14-.06,2.04.16,2.71.69l4.43,3.69c.74-.12,1.49-.24,2.23-.37l-9.12-7.06c.49-.62.96-1.26,1.43-1.89l-1.63.42h0Z"/><path class="cls-1" d="M51.55,31.67c-1.32,1.09-1.97,2.54-1.93,4.25.03,1.49.5,2.66,1.34,3.52.77.79,1.7,1.27,2.77,1.48,1.3.23,2.43-.08,3.44-.94.43-.36.7-.79.83-1.3s.07-.93-.2-1.26c-.14-.18-.39-.29-.74-.32-.34-.03-.64.05-.87.24-.46.38-.75.71-.88.98-.14.35-.07.68.21,1,.16.19.51.23,1.06.15v.06c-.73.62-1.53.82-2.43.63-.73-.16-1.37-.51-1.9-1.08-.84-.9-1.25-2.03-1.17-3.42.1-1.53.8-2.94,2.11-4.13l-1.65.16v-.02Z"/><path class="cls-1" d="M63.53,23.63c-4.41,2.36-8.57,5.18-12.4,8.39,1.06-.12,1.67-.21,1.85-.31.64.07,1.35-.16,2.14-.67,1.06-.67,1.7-1.02,1.9-1.07.71-.19,1.38.07,2,.77-.36,1.72-.62,2.67-.88,2.86-.22.16-.54.2-.95.11-.36-.08-.62-.19-.78-.35l-.32.99c1.38.38,2.24.49,2.64.29.16.02.46-.14.92-.46.44-.31.73-.82.88-1.54.09-.63.19-1.27.32-1.9.14-.71.45-1.2.9-1.48.28-.18.68-.27,1.19-.29s.82.07.93.26l2.11,3.64c.52.1,1.03.21,1.54.32l-4.55-8.18c.74-.41,1.48-.8,2.23-1.19l-1.66-.19h0ZM61.95,28.2c-.68-.07-1.2,0-1.54.22-.13.09-.33.32-.58.72l-.53.83-.25-.38c-.34-.5-1.16-.71-2.49-.56,1.69-1.19,3.44-2.31,5.23-3.35l1.62,2.78c-.8-.17-1.29-.25-1.46-.26Z"/><path class="cls-1" d="M74.92,18.74c-4.12,1.37-8.12,3.1-11.93,5.19l1.63.19c2.65-1.38,5.38-2.6,8.18-3.64l.21.58c-2.37,1.54-4.46,3.48-6.17,5.74.75.24,1.49.49,2.22.76,1.23-.51,2.35-.72,3.33-.65.76.04,1.59.27,2.45.69.8.43,1.58.87,2.34,1.32l-3.12-8.91c.8-.28,1.61-.55,2.43-.8l-1.58-.48h.01ZM69.53,26.04c1.29-1.52,2.64-2.73,3.99-3.63l1.67,4.51c-1.43-.86-3.33-1.19-5.67-.88h.01Z"/><path class="cls-1" d="M80.19,17.21l-1.11.28c-.31-.13-.55-.28-.72-.45l-.4-.65-.59-.14c.42,1.47.95,2.7,1.59,3.71-.66-.75-1.19-1.2-1.58-1.36-.64-.28-1.54-.25-2.69.14-.35.12-.72.26-1.09.43l1.64.41c.77-.3,1.49-.37,2.13-.2s1.04.53,1.19,1.05l1.88,6.6,1.34.62-2.46-9.28c.81-.21,1.62-.41,2.43-.6-.51-.2-1.03-.39-1.56-.57h0Z"/><path class="cls-1" d="M92.83,15.24l-1.14.09c.06-1.69-1.81-2.46-5.59-1.89-.38.06-.94.18-1.67.37-.74.19-1.29.34-1.66.41-.47.1-.93.11-1.38.03-.51-.07-.8-.24-.86-.51-.07-.32.1-.62.52-.9l-.53.08c-.19.03-.38.21-.55.52-.18.32-.24.54-.21.67.15.62.77.98,1.83,1.13.9.12,1.86.09,2.9-.1l2-.4c.89-.18,1.56-.29,2.01-.35.43-.05.85-.07,1.25-.03.56.05.84.18.86.39.02.22-.2.41-.67.58-.36.13-.73.23-1.12.28-3.06.38-6.09.95-9.08,1.71l1.56.58c1.4-.33,2.81-.62,4.23-.86.63.2.95.38.97.52l-.02.04c-.77.15-1.43.47-1.97.95-.54.49-.75.98-.65,1.48.05.26.25.44.59.54s.71.11,1.1.04c.58-.11,1.1-.37,1.57-.79.47-.43.68-.84.62-1.25.2-.09.41-.15.62-.18.53-.07.98.03,1.34.28.36.26.56.58.6.95.05.5-.4.97-1.32,1.45-.78.4-1.55.66-2.32.79-1.35.23-2.58.23-3.75-.01.67.63,1.33,1.27,1.97,1.92,1.83-.04,3.61.19,5.31.69,1.73.53,3.18,1.29,4.34,2.22l-.45-1.22c-2.12-1.34-4-2.17-5.49-2.57,1.39-.8,2.19-1.21,2.33-1.31.75-.54,1.1-1.16,1.04-1.87-.06-.77-.46-1.35-1.2-1.74-.38-.19-1.09-.41-2.14-.62-.82-.17-1.3-.35-1.43-.58,2.34-.34,4.69-.57,7.05-.69-.47-.29-.95-.57-1.43-.85h.02Z"/><path class="cls-1" d="M116.86,17.61c-5.48-1.49-11.14-2.33-16.81-2.5l1.34.99c4.36.22,8.7.83,12.96,1.84l-1.38,5.84c-.28-.68-.57-1.36-.87-2.04.08-.14.14-.3.18-.47.18-.81-.09-1.64-.85-2.48s-1.75-1.36-2.94-1.54c-.67-.1-1.25-.08-1.74.05-.61.16-.93.45-.97.86-.04.36.15.69.55.98.41.29.87.47,1.39.55.89.13,1.52-.08,1.93-.66.41.06.7.34.88.83.16.4.2.77.14,1.09-.09.46-.4.78-.92.97-.52.2-1.1.24-1.76.14-1.54-.24-2.74-.89-3.67-2.01-.52-.61-1.1-1.69-1.8-3.2l-.83-.29c.32,1.49,1,2.88,1.99,4.2,1.25,1.68,2.63,2.63,4.28,2.89,1.21.19,2.27-.06,3.23-.79,1.14,1.5,1.7,2.87,1.78,4.08l.37.38,2.33-9.05c.76.19,1.52.41,2.28.63-.36-.43-.73-.86-1.11-1.28h.02Z"/><path class="cls-1" d="M122.41,19.37l-1.08-.38c-.18-.28-.3-.54-.35-.77l.03-.76-.42-.44c-.47,1.45-.71,2.78-.75,3.97-.13-.99-.32-1.66-.56-2-.37-.59-1.15-1.06-2.31-1.38-.36-.1-.74-.18-1.15-.25.39.41.77.83,1.14,1.25.81.18,1.45.52,1.89,1.02s.57,1.01.4,1.54l-2.11,6.53c.26.42.52.84.77,1.26l3.11-9.08c.79.27,1.57.55,2.35.85-.32-.45-.64-.9-.98-1.34l.02-.02Z"/><path class="cls-1" d="M134.25,24.9c-3.94-2.29-8.09-4.21-12.39-5.73.34.45.68.9,1.01,1.36l1.46.56-1.93,4.84c.37.6.73,1.2,1.08,1.81.71-.57,1.62-.96,2.72-1.14,1.1-.19,2.26-.13,3.46.16-.66.62-1.14,1.24-1.46,1.86-.39.75-.74,2-1.11,3.74l.58.67c.35-1.23.65-2.11.93-2.64.62-1.16,1.8-2.17,3.62-2.95-.47-.73-.96-1.45-1.47-2.17-.99-.22-2.11-.32-3.36-.29-1.06.05-2.12.12-3.18.22l1.5-3.54c3.21,1.36,6.31,2.95,9.28,4.76-.24-.51-.48-1.02-.73-1.52h0Z"/><path class="cls-1" d="M146.21,33.6c-.64-.66-.8-1.27-.46-1.84-.1-.37-.2-.7-.31-.98-.69.91-1.57,2.22-2.64,3.9.1-.45.09-1.23-.06-2.33-.18-1.25-.47-2.02-.83-2.29-.57-.44-1.23-.71-1.97-.79-.63-.07-1.21,0-1.75.19.16-.44.07-.98-.26-1.62-.33-.63-.8-1.14-1.39-1.52-.84-.53-1.69-1.05-2.55-1.54l.72,1.51c1.04.62,1.66,1.04,1.88,1.24.52.48.75,1.05.71,1.69-.56-.23-1.15-.31-1.77-.23-.62.08-1.03.3-1.25.65-.18.28-.2.61-.09.99s.36.7.73.94c.36.24.76.38,1.2.42.44.05.82,0,1.13-.14.06.85.39,1.49.99,1.95.88.66,1.55.7,2.05.08.23-.29.27-.7.12-1.23-.09-.27-.29-.74-.61-1.41.12-.16.36-.18.74-.08.33.08.62.22.86.41.38.29.64.85.77,1.66s.07,1.35-.14,1.61l-3.74,4.28c.13.51.24,1.01.35,1.52l6.14-7.07c.62.53,1.22,1.08,1.82,1.64-.12-.53-.26-1.07-.4-1.6h0Z"/><path class="cls-1" d="M150.61,31.33c-2.97-1-5.94-1.79-8.88-2.38.9.67,1.78,1.37,2.65,2.08,2.34.3,4.71.72,7.1,1.27l-.87-.98h0Z"/></g></svg>